<svg width="15" height="22" viewBox="0 0 15 22" fill="none" xmlns="http://www.w3.org/2000/svg">
<path d="M3.7076 21.44C3.55411 21.3752 3.42657 21.2612 3.34509 21.1159C3.2636 20.9705 3.23282 20.8022 3.2576 20.6375L4.6226 11.75H1.0001C0.885254 11.7531 0.771236 11.7297 0.666839 11.6818C0.562443 11.6338 0.47046 11.5625 0.397986 11.4734C0.325513 11.3842 0.274487 11.2796 0.248846 11.1677C0.223205 11.0557 0.223633 10.9393 0.250098 10.8275L2.5001 1.07749C2.53969 0.909696 2.63588 0.760662 2.77248 0.655479C2.90909 0.550295 3.07775 0.495386 3.2501 0.499993H10.7501C10.8621 0.499612 10.9728 0.524341 11.0741 0.572363C11.1753 0.620384 11.2645 0.690478 11.3351 0.777493C11.4067 0.865492 11.4574 0.968583 11.4834 1.07901C11.5093 1.18943 11.5099 1.30431 11.4851 1.41499L10.1876 7.24999H13.7501C13.8907 7.24971 14.0285 7.28894 14.1478 7.3632C14.2672 7.43746 14.3632 7.54377 14.4251 7.66999C14.4788 7.79115 14.4995 7.92438 14.485 8.05612C14.4705 8.18787 14.4214 8.31342 14.3426 8.41999L4.5926 21.17C4.5267 21.2677 4.43872 21.3485 4.33578 21.4058C4.23284 21.4631 4.11784 21.4954 4.0001 21.5C3.89974 21.4981 3.80059 21.4778 3.7076 21.44ZM8.3126 8.74999L9.8126 1.99999H3.8501L1.9451 10.25H6.3776L5.1851 17.96L12.2501 8.74999H8.3126Z" fill="#BFDDFD" fill-opacity="0.6"/>
</svg>
