<svg width="9" height="15" viewBox="0 0 9 15" fill="none" xmlns="http://www.w3.org/2000/svg">
<path d="M1.66099e-07 1.07126L1.53324e-07 2.14252L1.4054e-07 3.21457L1.27765e-07 4.28583L1.14991e-07 5.35709L1.02216e-07 6.42835L8.94413e-08 7.49961L7.66573e-08 8.57165L6.38826e-08 9.64291L5.1108e-08 10.7142L3.83333e-08 11.7854L2.55493e-08 12.8575L1.27746e-08 13.9287L0 15L1.12479 15L2.24959 15L2.24959 13.9287L3.37521 13.9287L3.37521 12.8575L4.5 12.8575L4.5 11.7854L5.62479 11.7854L5.62479 10.7142L6.74959 10.7142L6.74959 9.64291L7.87521 9.64291L7.87521 8.57165L9 8.57165L9 7.49961L9 6.42835L7.87521 6.42835L7.87521 5.35709L6.74959 5.35709L6.74959 4.28583L5.62479 4.28583L5.62479 3.21457L4.5 3.21457L4.5 2.14252L3.37521 2.14252L3.37521 1.07126L2.24959 1.07126L2.24959 2.6826e-08L1.12479 1.3413e-08L1.78873e-07 0L1.66099e-07 1.07126Z" fill="#141D47"/>
</svg>
